<svg id="Layer_1" data-name="Layer 1" xmlns="http://www.w3.org/2000/svg" viewBox="0 0 698.13 287.58"><defs><style>.cls-1{fill:#cca05e;}</style></defs><path class="cls-1" d="M90.17,135.4V301.49a7.37,7.37,0,0,1-7.38,7.37H74.27V141.6a6.2,6.2,0,0,1,6.2-6.2Z" transform="translate(-35.87 -26.23)"/><path class="cls-1" d="M52.33,26.23,52,298.12a8.5,8.5,0,0,1-6.44,8.24L36,308.74V63.44c-1.33-38,5.32-30,16.29-37.21Z" transform="translate(-35.87 -26.23)"/><path class="cls-1" d="M114.78,26.23h6.38a9.51,9.51,0,0,1,9.52,9.51v124a100.69,100.69,0,0,1,10.07-11.65q28.42-28.44,68.53-28.45,40.28,0,68.63,28.45t28.35,68.71q0,40.11-28.35,68.54t-68.63,28.44q-40.09,0-68.53-28.44a99.94,99.94,0,0,1-10.07-11.66v35.15h-7.16a8.74,8.74,0,0,1-8.74-8.74Zm15.9,174v33.21q4.59,22.6,21.9,39.92,23.49,23.49,56.7,23.49T266,273.45q23.49-23.42,23.49-56.62T266,160.13q-26.85-26.85-66.38-23a73.46,73.46,0,0,0-38.92,15.77Q136.26,172.5,130.68,200.23Z" transform="translate(-35.87 -26.23)"/><path class="cls-1" d="M386.69,119.67q40.28,0,68.63,28.45t28.35,68.71q0,40.11-28.35,68.54t-68.63,28.44q-40.1,0-68.54-28.44t-28.44-68.54q0-40.28,28.44-68.71T386.69,119.67ZM322,169.13a71.32,71.32,0,0,0-14.79,35.74q-4.85,41.07,22.77,68.58,23.49,23.4,56.7,23.4t56.7-23.4q23.5-23.42,23.5-56.62t-23.5-56.7q-23.49-23.49-56.7-23.5Q347.63,136.63,322,169.13Z" transform="translate(-35.87 -26.23)"/><path class="cls-1" d="M494.14,135.4h0a14,14,0,0,1,14,14V167a99.46,99.46,0,0,1,10.09-13.61q18.48-21,37.88-22.08v17.32q-13.2.71-27.32,16.78-19.87,22.42-20.65,53.87v89.56h0a14,14,0,0,1-14-14Z" transform="translate(-35.87 -26.23)"/><path class="cls-1" d="M734,308.86h-8.19a7.71,7.71,0,0,1-7.71-7.7V273.53A118.09,118.09,0,0,1,708,285.37q-28.44,28.44-68.71,28.44-40.11,0-68.54-28.44t-28.44-68.54q0-40.28,28.44-68.71t68.54-28.45q40.27,0,68.71,28.45A119.11,119.11,0,0,1,718.1,160V135.4h8.55a7.35,7.35,0,0,1,7.35,7.34Zm-15.9-76.31V201.11q-4.41-23.33-22.08-41-27.63-27.63-68.71-22.77a71.4,71.4,0,0,0-35.7,14.8q-32.49,25.62-32.49,64.67,0,33.21,23.49,56.62,26.85,26.74,66.39,22.93a73.47,73.47,0,0,0,39.23-16Q712.77,260.44,718.1,232.55Z" transform="translate(-35.87 -26.23)"/><path class="cls-1" d="M69.63,98.32a10.48,10.48,0,0,1,1-.47A11.52,11.52,0,0,1,75,97a16.36,16.36,0,0,1,2.56.22L72.65,94l8,4.08c.57.19,1.06.39,1.46.55h0c-.52-2.08-2-6.58-5.62-8.71a11,11,0,0,0-5.64-1.38,18.9,18.9,0,0,0-5.79,1S65.93,95.13,69.63,98.32Z" transform="translate(-35.87 -26.23)"/><path class="cls-1" d="M72.13,104.66l5.28-2.59a21.19,21.19,0,0,1,3.17-2.55A17,17,0,0,0,75,98.45a9.93,9.93,0,0,0-3.84.71C66,101.3,64,108.06,64,108.06A18.28,18.28,0,0,0,71.49,110a10.38,10.38,0,0,0,1.84-.15c0-.32.07-.63.13-1a12.32,12.32,0,0,1,2.89-5.66Z" transform="translate(-35.87 -26.23)"/><path class="cls-1" d="M80,111.3l1.35-10.58c-1.68,1.1-5.67,4.11-6.49,8.39-1,5.45,3.49,10.89,3.49,10.89s6-3.31,7.18-8.62A14.86,14.86,0,0,1,82,103.23Z" transform="translate(-35.87 -26.23)"/><path class="cls-1" d="M94.38,102.83c-.19-.16-.39-.3-.58-.45a12.37,12.37,0,0,1-3.57.51,17.19,17.19,0,0,1-3.73-.44l5.09,5.22-7.24-5.81-1.06-.38c.13,2.24.75,6.71,3.75,9.43,2.66,2.42,6.53,2.84,8.93,2.84a17.55,17.55,0,0,0,2.17-.12S98.48,106.56,94.38,102.83Z" transform="translate(-35.87 -26.23)"/><path class="cls-1" d="M93.35,95.14l-8.27,4.48c-.37.28-.68.51-.93.67a18,18,0,0,0,6.08,1.18,10.25,10.25,0,0,0,4.34-.88c5-2.34,6.8-9.19,6.8-9.19a18.49,18.49,0,0,0-7.07-1.59,10.36,10.36,0,0,0-4.26.85,11.17,11.17,0,0,1-2.76,6.87Z" transform="translate(-35.87 -26.23)"/><path class="cls-1" d="M82.74,95.92l.42-6.86.38,6.23h0l0,.68-.06,3c4-2.77,9.3-10.17-.3-18.79,0,0-4.68,3.86-5.37,8.84A14.56,14.56,0,0,1,82.74,95.92Z" transform="translate(-35.87 -26.23)"/></svg>