<?xml version="1.0" encoding="utf-8"?>
<svg id="Layer_1" data-name="Layer 1" viewBox="-1.548 0 800 800" xmlns="http://www.w3.org/2000/svg">
  <defs>
    <style>.cls-1{fill:#cca05e;}</style>
  </defs>
  <rect x="-21.771" y="-16.86" width="875.827" height="869.751" style="stroke: rgb(255, 255, 255); paint-order: fill; fill: rgb(255, 255, 255);"/>
  <g transform="matrix(1, 0, 0, 1, 49.406204, 225.210022)">
    <path class="cls-1" d="M 54.3 109.17 L 54.3 275.26 C 54.3 279.334 50.994 282.636 46.92 282.63 L 38.4 282.63 L 38.4 115.37 C 38.4 111.946 41.176 109.17 44.6 109.17 L 54.3 109.17 Z"/>
    <path class="cls-1" d="M 16.46 0 L 16.13 271.89 C 16.127 275.789 13.472 279.185 9.69 280.13 L 0.13 282.51 L 0.13 37.21 C -1.2 -0.79 5.45 7.21 16.42 0 L 16.46 0 Z"/>
    <path class="cls-1" d="M 78.91 0 L 85.29 0 C 90.546 -0.006 94.81 4.254 94.81 9.51 L 94.81 133.51 C 97.864 129.375 101.231 125.481 104.88 121.86 C 123.827 102.9 146.67 93.417 173.41 93.41 C 200.263 93.41 223.14 102.893 242.04 121.86 C 260.94 140.827 270.39 163.73 270.39 190.57 C 270.39 217.31 260.94 240.157 242.04 259.11 C 223.14 278.063 200.263 287.543 173.41 287.55 C 146.683 287.55 123.84 278.07 104.88 259.11 C 101.228 255.488 97.862 251.59 94.81 247.45 L 94.81 282.6 L 87.65 282.6 C 82.823 282.6 78.91 278.687 78.91 273.86 L 78.91 0 Z M 94.81 174 L 94.81 207.21 C 97.87 222.277 105.17 235.583 116.71 247.13 C 132.37 262.79 151.27 270.62 173.41 270.62 C 195.55 270.62 214.457 262.82 230.13 247.22 C 245.79 231.607 253.62 212.733 253.62 190.6 C 253.62 168.467 245.79 149.567 230.13 133.9 C 212.23 116 190.103 108.333 163.75 110.9 C 149.519 112.258 135.992 117.738 124.83 126.67 C 108.537 139.737 98.53 155.513 94.81 174 Z"/>
    <path class="cls-1" d="M 350.82 93.44 C 377.673 93.44 400.55 102.923 419.45 121.89 C 438.35 140.857 447.8 163.76 447.8 190.6 C 447.8 217.34 438.35 240.187 419.45 259.14 C 400.55 278.093 377.673 287.573 350.82 287.58 C 324.087 287.58 301.24 278.1 282.28 259.14 C 263.32 240.18 253.84 217.333 253.84 190.6 C 253.84 163.747 263.32 140.843 282.28 121.89 C 301.24 102.937 324.087 93.453 350.82 93.44 Z M 286.13 142.9 C 278.002 153.224 272.884 165.592 271.34 178.64 C 268.107 206.02 275.697 228.88 294.11 247.22 C 309.77 262.82 328.67 270.62 350.81 270.62 C 372.95 270.62 391.85 262.82 407.51 247.22 C 423.177 231.607 431.01 212.733 431.01 190.6 C 431.01 168.467 423.177 149.567 407.51 133.9 C 391.85 118.24 372.95 110.407 350.81 110.4 C 324.777 110.4 303.217 121.233 286.13 142.9 Z"/>
    <path class="cls-1" d="M 458.27 109.17 C 466.002 109.17 472.27 115.438 472.27 123.17 L 472.27 140.77 C 475.24 135.955 478.616 131.401 482.36 127.16 C 494.68 113.16 507.307 105.8 520.24 105.08 L 520.24 122.4 C 511.44 122.873 502.333 128.467 492.92 139.18 C 479.673 154.127 472.79 172.083 472.27 193.05 L 472.27 282.61 C 464.538 282.61 458.27 276.342 458.27 268.61 L 458.27 109.17 Z"/>
    <path class="cls-1" d="M 698.13 282.63 L 689.94 282.63 C 685.686 282.63 682.236 279.184 682.23 274.93 L 682.23 247.3 C 679.127 251.464 675.753 255.42 672.13 259.14 C 653.17 278.1 630.267 287.58 603.42 287.58 C 576.68 287.58 553.833 278.1 534.88 259.14 C 515.927 240.18 506.447 217.333 506.44 190.6 C 506.44 163.747 515.92 140.843 534.88 121.89 C 553.84 102.937 576.687 93.453 603.42 93.44 C 630.267 93.44 653.17 102.923 672.13 121.89 C 675.753 125.625 679.126 129.594 682.23 133.77 L 682.23 109.17 L 690.78 109.17 C 694.835 109.17 698.124 112.455 698.13 116.51 L 698.13 282.63 Z M 682.23 206.32 L 682.23 174.88 C 679.29 159.327 671.93 145.66 660.15 133.88 C 641.73 115.46 618.827 107.87 591.44 111.11 C 578.406 112.668 566.053 117.789 555.74 125.91 C 534.08 142.99 523.25 164.547 523.25 190.58 C 523.25 212.72 531.08 231.593 546.74 247.2 C 564.64 265.027 586.77 272.67 613.13 270.13 C 627.494 268.765 641.138 263.2 652.36 254.13 C 668.72 240.85 678.677 224.913 682.23 206.32 Z"/>
    <path class="cls-1" d="M 33.76 72.09 C 34.085 71.916 34.419 71.759 34.76 71.62 C 36.148 71.055 37.632 70.766 39.13 70.77 C 39.988 70.776 40.844 70.85 41.69 70.99 L 36.78 67.77 L 44.78 71.85 C 45.35 72.04 45.84 72.24 46.24 72.4 C 45.72 70.32 44.24 65.82 40.62 63.69 C 38.898 62.733 36.95 62.257 34.98 62.31 C 33.01 62.339 31.056 62.677 29.19 63.31 C 29.19 63.31 30.06 68.9 33.76 72.09 Z"/>
    <path class="cls-1" d="M 36.26 78.43 L 41.54 75.84 C 42.512 74.89 43.574 74.036 44.71 73.29 C 42.923 72.623 41.037 72.261 39.13 72.22 C 37.816 72.2 36.51 72.441 35.29 72.93 C 30.13 75.07 28.13 81.83 28.13 81.83 C 30.46 83.004 33.014 83.665 35.62 83.77 C 36.237 83.775 36.852 83.725 37.46 83.62 C 37.46 83.3 37.53 82.99 37.59 82.62 C 38.042 80.513 39.038 78.561 40.48 76.96 L 36.26 78.43 Z"/>
    <path class="cls-1" d="M 44.13 85.07 L 45.48 74.49 C 43.8 75.59 39.81 78.6 38.99 82.88 C 37.99 88.33 42.48 93.77 42.48 93.77 C 42.48 93.77 48.48 90.46 49.66 85.15 C 47.68 82.857 46.448 80.013 46.13 77 L 44.13 85.07 Z"/>
    <path class="cls-1" d="M 58.51 76.6 C 58.32 76.44 58.12 76.3 57.93 76.15 C 56.771 76.493 55.569 76.665 54.36 76.66 C 53.104 76.65 51.854 76.502 50.63 76.22 L 55.72 81.44 L 48.48 75.63 L 47.42 75.25 C 47.55 77.49 48.17 81.96 51.17 84.68 C 53.83 87.1 57.7 87.52 60.1 87.52 C 60.825 87.525 61.55 87.485 62.27 87.4 C 62.27 87.4 62.61 80.33 58.51 76.6 Z"/>
    <path class="cls-1" d="M 57.48 68.91 L 49.21 73.39 C 48.84 73.67 48.53 73.9 48.28 74.06 C 50.223 74.802 52.28 75.201 54.36 75.24 C 55.854 75.266 57.335 74.966 58.7 74.36 C 63.7 72.02 65.5 65.17 65.5 65.17 C 63.271 64.179 60.868 63.638 58.43 63.58 C 56.966 63.559 55.514 63.849 54.17 64.43 C 54.058 66.967 53.084 69.39 51.41 71.3 L 57.48 68.91 Z"/>
    <path class="cls-1" d="M 46.87 69.69 L 47.29 62.83 L 47.67 69.06 L 47.67 69.74 L 47.61 72.74 C 51.61 69.97 56.91 62.57 47.31 53.95 C 47.31 53.95 42.63 57.81 41.94 62.79 C 44.232 64.55 45.948 66.952 46.87 69.69 Z"/>
  </g>
</svg>